<?xml version="1.0" encoding="UTF-8"?>
<!-- Android adaptive icon foreground — dark. -->
<svg xmlns="http://www.w3.org/2000/svg" viewBox="0 0 432 432" width="432" height="432">
  <defs>
    <linearGradient id="ink" x1="0" y1="0" x2="1" y2="1">
      <stop offset="0%" stop-color="#AFCBD8"/>
      <stop offset="100%" stop-color="#6A93A6"/>
    </linearGradient>
  </defs>

  <svg x="86" y="86" width="260" height="260" viewBox="0 0 512 512">
    <g transform="translate(0,512) scale(1,-1)">
      <path fill="url(#ink)" d="M387 483 302 398C300 396 299 393 299 390V216C299 207 310 202 316 208L402 285C404 287 405 290 405 293V476C405 485 394 490 387 483ZM479 401C469 406 459 410 448 414V157C424 166 399 171 373 171C333 171 293 159 256 137V395C221 415 182 427 139 427C100 427 64 417 33 401C26 398 21 390 21 382V125C21 108 39 98 53 106C79 119 108 128 139 128C183 128 224 111 256 85C288 111 329 128 373 128C404 128 433 119 459 106C473 98 491 108 491 124V382C491 390 486 398 479 401Z"/>
    </g>
  </svg>
</svg>
